<svg viewBox="0 0 100 100" xmlns="http://www.w3.org/2000/svg" id="Application-Development-4--Streamline-Ux">
  <desc>
    Application Development 4 Streamline Illustration: https://streamlinehq.com
  </desc>
  <path d="M10 50a40 40 0 1 0 80 0 40 40 0 1 0 -80 0Z" fill="#d9edff" stroke-width="1"></path>
  <path d="M29.329 13.986h24.437a5.431 5.431 0 0 1 5.434 5.431v48.874a5.43 5.43 0 0 1 -5.43 5.43H29.329a5.43 5.43 0 0 1 -5.43 -5.43V19.417a5.43 5.43 0 0 1 5.43 -5.431Z" fill="#ffffff" stroke="#020064" stroke-linecap="round" stroke-linejoin="round" stroke-width="1"></path>
  <path d="M23.899 24.847h35.298v40.729H23.899z" fill="#b0d9ff" stroke-width="1"></path>
  <path d="M23.899 24.847h35.298v40.729H23.899z" fill="none" stroke="#020064" stroke-linecap="round" stroke-linejoin="round" stroke-width="1"></path>
  <path d="m33.93 19.417 6.788 0" fill="none" stroke="#020064" stroke-linecap="round" stroke-linejoin="round" stroke-width="1"></path>
  <path d="m46.149 19.417 1.357 0" fill="none" stroke="#020064" stroke-linecap="round" stroke-linejoin="round" stroke-width="1"></path>
  <path d="M41.548 70.507a0.858 0.858 0 1 1 0.858 -0.859 0.859 0.859 0 0 1 -0.858 0.859Z" fill="#020064" stroke-width="1"></path>
  <path d="M41.548 69.291a0.358 0.358 0 1 1 -0.358 0.358 0.359 0.359 0 0 1 0.358 -0.358m0 -1a1.358 1.358 0 1 0 1.358 1.358 1.358 1.358 0 0 0 -1.358 -1.358Z" fill="#020064" stroke-width="1"></path>
  <path d="M45.16 83.357a12.874 1.609 0 1 0 25.748 0 12.874 1.609 0 1 0 -25.748 0Z" fill="#b0d9ff" stroke-width="1"></path>
  <path d="M59.163 70.524a2.73 2.73 0 0 0 -1.835 0.715V64.1H50.19a2.753 2.753 0 1 0 -4.077 0h-5.3a1.835 1.835 0 0 0 -1.835 1.835v14.683a1.835 1.835 0 0 0 1.835 1.835h16.515v-7.138a2.749 2.749 0 1 0 1.835 -4.791Z" fill="#ffffff" stroke-width="1"></path>
  <path d="M68.543 64.1a2.754 2.754 0 1 0 -4.077 0h-7.138v7.138a2.753 2.753 0 1 1 0 4.076v7.138h16.517a1.835 1.835 0 0 0 1.835 -1.835V65.936a1.835 1.835 0 0 0 -1.835 -1.836Z" fill="#b0d9ff" stroke-width="1"></path>
  <path d="M68.543 64.1a2.754 2.754 0 1 0 -4.077 0h-7.138v7.138a2.753 2.753 0 1 1 0 4.076v7.138h16.517a1.835 1.835 0 0 0 1.835 -1.835V65.936a1.835 1.835 0 0 0 -1.835 -1.836Z" fill="none" stroke="#020064" stroke-linecap="round" stroke-linejoin="round" stroke-width="1"></path>
  <path d="M59.163 70.524a2.73 2.73 0 0 0 -1.835 0.715V64.1H50.19a2.753 2.753 0 1 0 -4.077 0h-5.3a1.835 1.835 0 0 0 -1.835 1.835v14.683a1.835 1.835 0 0 0 1.835 1.835h16.515v-7.138a2.749 2.749 0 1 0 1.835 -4.791Z" fill="none" stroke="#020064" stroke-linecap="round" stroke-linejoin="round" stroke-width="1"></path>
  <path d="M60.221 38.478a2.753 2.753 0 1 1 -3.846 1.354l-5 1.76a1.834 1.834 0 0 0 -1.122 2.34l1.579 4.487a2.71 2.71 0 0 0 -0.922 0.146 2.753 2.753 0 1 0 1.828 5.193 2.725 2.725 0 0 0 0.809 -0.463l1.58 4.487a1.835 1.835 0 0 0 2.34 1.122l5 -1.76a2.754 2.754 0 1 1 3.846 -1.354l5 -1.76a1.835 1.835 0 0 0 1.122 -2.34l-4.871 -13.85a1.837 1.837 0 0 0 -2.341 -1.122Z" fill="#ffffff" stroke-width="1"></path>
  <path d="M60.221 38.478a2.753 2.753 0 1 1 -3.846 1.354l-5 1.76a1.834 1.834 0 0 0 -1.122 2.34l1.579 4.487a2.71 2.71 0 0 0 -0.922 0.146 2.753 2.753 0 1 0 1.828 5.193 2.725 2.725 0 0 0 0.809 -0.463l1.58 4.487a1.835 1.835 0 0 0 2.34 1.122l5 -1.76a2.754 2.754 0 1 1 3.846 -1.354l5 -1.76a1.835 1.835 0 0 0 1.122 -2.34l-4.871 -13.85a1.837 1.837 0 0 0 -2.341 -1.122Z" fill="none" stroke="#020064" stroke-linecap="round" stroke-linejoin="round" stroke-width="1"></path>
  <path d="m29.514 30.401 8.825 0 0 8.825 -8.825 0Z" fill="#ffffff" stroke="#020064" stroke-linecap="round" stroke-linejoin="round" stroke-width="1"></path>
  <path d="m43.955 30.401 8.825 0 0 8.825 -8.825 0Z" fill="#ffffff" stroke="#020064" stroke-linecap="round" stroke-linejoin="round" stroke-width="1"></path>
  <path d="m29.514 44.039 8.825 0 0 8.825 -8.825 0Z" fill="#ffffff" stroke="#020064" stroke-linecap="round" stroke-linejoin="round" stroke-width="1"></path>
</svg>