<svg viewBox="0 0 100 100" xmlns="http://www.w3.org/2000/svg" id="Education-Interest--Streamline-Ux">
  <desc>
    Education Interest Streamline Illustration: https://streamlinehq.com
  </desc>
  <path d="M31.045 66.213h-1.827a1.371 1.371 0 0 0 -1.276 0.869l-6.463 16.45a1.37 1.37 0 0 0 1.276 1.868h24.032a1.371 1.371 0 0 1 0.952 0.385 4.314 4.314 0 0 0 3.118 0.986 4.319 4.319 0 0 0 3.119 -0.986 1.367 1.367 0 0 1 0.952 -0.385h24.031a1.37 1.37 0 0 0 1.276 -1.872l-6.462 -16.45a1.372 1.372 0 0 0 -1.276 -0.869h-1.828" fill="none" stroke="#020064" stroke-linecap="round" stroke-linejoin="round" stroke-width="1"></path>
  <path d="M49.351 60.535a14.713 14.713 0 0 1 1.506 0.88v15.764c-7.539 -4.112 -19.877 -2.741 -23.989 0l5.483 -14.393q0.1 -0.068 0.2 -0.132" fill="none" stroke="#020064" stroke-linecap="round" stroke-linejoin="round" stroke-width="1"></path>
  <path d="M26.868 77.179c4.112 -2.741 16.45 -4.112 23.989 0 7.54 -4.112 19.877 -2.741 23.99 0V81a1 1 0 0 1 -1.4 0.914c-4.927 -2.159 -15.309 -2.936 -22.14 0.512a1 1 0 0 1 -0.9 0c-6.831 -3.447 -17.213 -2.669 -22.14 -0.511a1 1 0 0 1 -1.4 -0.914Z" fill="none" stroke="#020064" stroke-linecap="round" stroke-linejoin="round" stroke-width="1"></path>
  <path d="M55.812 59.327a14.01 14.01 0 0 0 -4.955 2.088v15.764c7.54 -4.112 19.877 -2.741 23.99 0L69.787 63.9" fill="none" stroke="#020064" stroke-linecap="round" stroke-linejoin="round" stroke-width="1"></path>
  <path d="m50.857 77.179 0 5.355" fill="none" stroke="#020064" stroke-linecap="round" stroke-linejoin="round" stroke-width="1"></path>
  <path d="m43.457 61.286 2.88 -1.462a0.849 0.849 0 0 0 0.374 -1.142l-4.618 -9.1a0.424 0.424 0 0 0 -0.8 0.117l-1.68 9.257m4.4 -0.891a0.5 0.5 0 0 1 -0.219 0.671l-1.3 0.658a0.5 0.5 0 0 1 -0.716 -0.54l0.45 -2.324a0.5 0.5 0 0 1 0.935 -0.131Z" fill="none" stroke="#020064" stroke-linecap="round" stroke-linejoin="round" stroke-width="1"></path>
  <path d="m45.7110220402 63.240651088 -1.4271188225 2.350708801a1 1 0 0 1 -1.3737554994 0.3358509011l-9.1848603873 -5.5761424539a1 1 0 0 1 -0.3358509012 -1.3737554994l1.4271188225 -2.3507088008a0.5 0.5 0 0 1 0.6868777497 -0.1679254506l10.0396635876 6.095094753a0.5 0.5 0 0 1 0.1679254506 0.6868777497Z" fill="none" stroke="#020064" stroke-linecap="round" stroke-linejoin="round" stroke-width="1"></path>
  <path d="m44.156 61.71 -0.662 1.089" fill="none" stroke="#020064" stroke-linecap="round" stroke-linejoin="round" stroke-width="1"></path>
  <path d="m42.34 60.608 -0.661 1.089" fill="none" stroke="#020064" stroke-linecap="round" stroke-linejoin="round" stroke-width="1"></path>
  <path d="m40.525 59.506 -0.662 1.089" fill="none" stroke="#020064" stroke-linecap="round" stroke-linejoin="round" stroke-width="1"></path>
  <path d="m38.709 58.403 -0.661 1.09" fill="none" stroke="#020064" stroke-linecap="round" stroke-linejoin="round" stroke-width="1"></path>
  <path d="m36.894 57.301 -0.662 1.089" fill="none" stroke="#020064" stroke-linecap="round" stroke-linejoin="round" stroke-width="1"></path>
  <path d="M15.352 45.684a8.033 8.033 0 1 0 16.066 0 8.033 8.033 0 1 0 -16.066 0Z" fill="none" stroke="#020064" stroke-linecap="round" stroke-linejoin="round" stroke-width="1"></path>
  <path d="M15.353 45.517c-3.605 2.064 -5.755 4.107 -5.29 5.311 0.71 1.839 7.25 1.028 14.608 -1.813s12.747 -6.635 12.037 -8.474c-0.465 -1.2 -3.429 -1.272 -7.486 -0.378" fill="none" stroke="#020064" stroke-linecap="round" stroke-linejoin="round" stroke-width="1"></path>
  <path d="M64.613 34.049a1 1 0 0 1 1 1v4.482a1.462 1.462 0 0 0 0.178 0.7l3.031 5.557a1.463 1.463 0 0 1 -1.284 2.164H60.76a1.463 1.463 0 0 1 -1.284 -2.164l3.031 -5.557a1.462 1.462 0 0 0 0.178 -0.7v-4.484a1 1 0 0 1 1 -1Z" fill="none" stroke="#020064" stroke-linecap="round" stroke-linejoin="round" stroke-width="1"></path>
  <path d="m80.035 48.06 -2.83 0.94a0.5 0.5 0 0 1 -0.631 -0.632l0.943 -2.83 7.555 -7.555 2.518 2.519Z" fill="none" stroke="#020064" stroke-linecap="round" stroke-linejoin="round" stroke-width="1"></path>
  <path d="M89.478 38.617A1.78 1.78 0 0 0 86.96 36.1l-1.888 1.888 2.518 2.519Z" fill="none" stroke="#020064" stroke-linecap="round" stroke-linejoin="round" stroke-width="1"></path>
  <path d="M45.481 39.852a2.448 2.448 0 1 0 4.896 0 2.448 2.448 0 1 0 -4.896 0Z" fill="none" stroke="#020064" stroke-linecap="round" stroke-linejoin="round" stroke-width="1"></path>
  <path d="m50.289 39.202 -2.707 -9.833" fill="none" stroke="#020064" stroke-linecap="round" stroke-linejoin="round" stroke-width="1"></path>
  <path d="M53.5 29.34a1 1 0 0 1 -1.211 1.233l-4.706 -1.2 -0.518 -1.882a1 1 0 0 1 1.21 -1.233l4.145 1.06a1 1 0 0 1 0.715 0.7Z" fill="none" stroke="#020064" stroke-linecap="round" stroke-linejoin="round" stroke-width="1"></path>
  <path d="M74.658 23.552a1.658 1.658 0 0 0 0.612 -1.095c1.064 -8.686 -6.567 -9.947 -13.68 -7.027a1.663 1.663 0 0 0 -0.34 2.888c4.566 3.282 6.574 10.705 13.408 5.234Z" fill="none" stroke="#020064" stroke-linecap="round" stroke-linejoin="round" stroke-width="1"></path>
  <path d="M67.232 18.629c7.433 1.436 9.423 6.883 9.423 6.883" fill="none" stroke="#020064" stroke-linecap="round" stroke-linejoin="round" stroke-width="1"></path>
  <path d="M62.569 54.3a2.973 2.973 0 1 1 5.531 2.183" fill="none" stroke="#020064" stroke-linecap="round" stroke-linejoin="round" stroke-width="1"></path>
  <path d="M66.541 62.176a4.673 4.673 0 1 1 0.469 -5.917" fill="none" stroke="#020064" stroke-linecap="round" stroke-linejoin="round" stroke-width="1"></path>
  <path d="M63.991 59.233a2.973 2.973 0 1 0 5.946 0 2.973 2.973 0 1 0 -5.946 0Z" fill="none" stroke="#020064" stroke-linecap="round" stroke-linejoin="round" stroke-width="1"></path>
  <path d="m23.196 13.225 16.87 0 0 16.87 -16.87 0Z" fill="none" stroke="#020064" stroke-linecap="round" stroke-linejoin="round" stroke-width="1"></path>
  <path d="M25.496 15.525h12.269v12.269H25.496z" fill="none" stroke="#020064" stroke-linecap="round" stroke-linejoin="round" stroke-width="1"></path>
  <path d="M32.416 24.751a1.545 1.545 0 0 1 2.763 -0.578l2.586 3.621" fill="none" stroke="#020064" stroke-linecap="round" stroke-linejoin="round" stroke-width="1"></path>
  <path d="m25.5 27.794 3.374 -4.5a1.534 1.534 0 0 1 2.454 0l3.374 4.5Z" fill="none" stroke="#020064" stroke-linecap="round" stroke-linejoin="round" stroke-width="1"></path>
  <path d="M31.63 19.359a1.534 1.534 0 1 0 3.068 0 1.534 1.534 0 1 0 -3.068 0Z" fill="none" stroke="#020064" stroke-linecap="round" stroke-linejoin="round" stroke-width="1"></path>
</svg>