<svg viewBox="0 0 100 100" xmlns="http://www.w3.org/2000/svg" id="Phone-Comment-Text-4--Streamline-Ux">
  <desc>
    Phone Comment Text 4 Streamline Illustration: https://streamlinehq.com
  </desc>
  <path d="M8.505 47.988a40 40 0 1 0 80 0 40 40 0 1 0 -80 0Z" fill="#d9edff" stroke-width="1"></path>
  <path d="M71.18 13.885A4.162 4.162 0 0 0 67 9.741H31.47a4.162 4.162 0 0 0 -4.18 4.144v65.454a4.163 4.163 0 0 0 4.18 4.145H67a4.163 4.163 0 0 0 4.18 -4.145Zm-3.873 54.4a1 1 0 0 1 -1 1h-34.14a1 1 0 0 1 -1 -1V22.357a1 1 0 0 1 1 -1H66.3a1 1 0 0 1 1 1Z" fill="#ffffff" stroke-width="1"></path>
  <path d="M71.18 13.885A4.162 4.162 0 0 0 67 9.741H31.47a4.162 4.162 0 0 0 -4.18 4.144v65.454a4.163 4.163 0 0 0 4.18 4.145H67a4.163 4.163 0 0 0 4.18 -4.145Zm-3.873 54.4a1 1 0 0 1 -1 1h-34.14a1 1 0 0 1 -1 -1V22.357a1 1 0 0 1 1 -1H66.3a1 1 0 0 1 1 1Zm0 0a1 1 0 0 1 -1 1h-34.14a1 1 0 0 1 -1 -1V22.357a1 1 0 0 1 1 -1H66.3a1 1 0 0 1 1 1Z" fill="none" stroke="#020064" stroke-linecap="round" stroke-linejoin="round" stroke-width="1"></path>
  <path d="M41.443 14.921a1 0.991 0 1 0 2 0 1 0.991 0 1 0 -2 0Z" fill="#020064" stroke-width="1"></path>
  <path d="m46.1 14.921 9.405 0" fill="none" stroke="#020064" stroke-linecap="round" stroke-linejoin="round" stroke-width="1"></path>
  <path d="M45.705 76.749a3.53 3.5 0 1 0 7.06 0 3.53 3.5 0 1 0 -7.06 0Z" fill="#ffffff" stroke="#020064" stroke-linecap="round" stroke-linejoin="round" stroke-width="1"></path>
  <path d="M67.307 68.286a1 1 0 0 1 -1 1h-34.14a1 1 0 0 1 -1 -1V22.357a1 1 0 0 1 1 -1H66.3a1 1 0 0 1 1 1Z" fill="#b0d9ff" stroke-width="1"></path>
  <path d="M67.307 68.286a1 1 0 0 1 -1 1h-34.14a1 1 0 0 1 -1 -1V22.357a1 1 0 0 1 1 -1H66.3a1 1 0 0 1 1 1Z" fill="none" stroke="#020064" stroke-linecap="round" stroke-linejoin="round" stroke-width="1"></path>
  <path d="m22.778 43.813 47.703 0 0 18.387 -47.703 0Z" fill="#ffffff" stroke="#020064" stroke-linecap="round" stroke-linejoin="round" stroke-width="1"></path>
  <path d="m35.119 48.204 17.283 0" fill="none" stroke="#020064" stroke-linecap="round" stroke-linejoin="round" stroke-width="1"></path>
  <path d="m30.678 52.742 22.146 0" fill="none" stroke="#020064" stroke-linecap="round" stroke-linejoin="round" stroke-width="1"></path>
  <path d="m30.678 57.14 22.146 0" fill="none" stroke="#020064" stroke-linecap="round" stroke-linejoin="round" stroke-width="1"></path>
  <path d="m34.931 32.287 28.608 0 0 4 -28.608 0Z" fill="#ffffff" stroke="#020064" stroke-linecap="round" stroke-linejoin="round" stroke-width="1"></path>
  <path d="m34.931 24.974 28.608 0 0 4 -28.608 0Z" fill="#ffffff" stroke="#020064" stroke-linecap="round" stroke-linejoin="round" stroke-width="1"></path>
  <path d="M85.128 48.289a0.563 0.563 0 0 1 0.337 -1.042l5.466 0.422a0.564 0.564 0 0 1 0.493 0.734l-0.781 2.44a0.564 0.564 0 0 1 -0.83 0.309Z" fill="#b0d9ff" stroke="#020064" stroke-linecap="round" stroke-linejoin="round" stroke-width="1"></path>
  <path d="M78.481 37.314a0.563 0.563 0 0 1 -1.042 -0.337l0.422 -5.466a0.565 0.565 0 0 1 0.248 -0.424 0.559 0.559 0 0 1 0.485 -0.069l2.441 0.781a0.564 0.564 0 0 1 0.309 0.83Z" fill="#b0d9ff" stroke="#020064" stroke-linecap="round" stroke-linejoin="round" stroke-width="1"></path>
  <path d="M82.381 42.665a0.564 0.564 0 0 1 -0.5 -0.976l5.848 -5.01a0.563 0.563 0 0 1 0.867 0.17l1.649 3.2a0.564 0.564 0 0 1 -0.369 0.806Z" fill="#b0d9ff" stroke="#020064" stroke-linecap="round" stroke-linejoin="round" stroke-width="1"></path>
  <path d="M65.884 59.81a4.972 4.972 0 0 0 5.513 0" fill="none" stroke="#020064" stroke-linecap="round" stroke-linejoin="round" stroke-width="1"></path>
  <path d="M81.5 55.132a2.264 2.264 0 0 0 -1.838 -2.2v-1.475a11.025 11.025 0 1 0 -22.049 0v1.471a2.25 2.25 0 0 0 0.231 4.455 11.026 11.026 0 0 0 21.587 0 2.276 2.276 0 0 0 2.069 -2.251Z" fill="#ffffff" stroke="#020064" stroke-linecap="round" stroke-linejoin="round" stroke-width="1"></path>
  <path d="M61.291 56.51a1.378 1.378 0 1 0 2.756 0 1.378 1.378 0 1 0 -2.756 0Z" fill="#b0d9ff" stroke-width="1"></path>
  <path d="M73.234 56.51a1.378 1.378 0 1 0 2.756 0 1.378 1.378 0 1 0 -2.756 0Z" fill="#b0d9ff" stroke-width="1"></path>
  <path d="M65.884 59.81a4.972 4.972 0 0 0 5.513 0" fill="none" stroke="#020064" stroke-linecap="round" stroke-linejoin="round" stroke-width="1"></path>
  <path d="M68.64 36.757a13.781 13.781 0 0 0 -13.781 13.781v5.341a14.376 14.376 0 0 0 1.107 5.505c0.828 1.987 2.171 4.265 4.189 5.226a0.919 0.919 0 0 0 1.245 -1.188 26.134 26.134 0 0 1 -1.362 -15.242 1.836 1.836 0 0 1 1.8 -1.479h13.6a1.834 1.834 0 0 1 1.8 1.479 26.134 26.134 0 0 1 -1.358 15.242 0.919 0.919 0 0 0 1.241 1.188c2.018 -0.961 3.361 -3.239 4.189 -5.226a14.375 14.375 0 0 0 1.106 -5.505v-5.341A13.781 13.781 0 0 0 68.64 36.757Z" fill="#ffffff" stroke-width="1"></path>
  <path d="M68.64 36.757a13.781 13.781 0 0 0 -13.781 13.781v5.341a14.376 14.376 0 0 0 1.107 5.505c0.828 1.987 2.171 4.265 4.189 5.226a0.919 0.919 0 0 0 1.245 -1.188 26.134 26.134 0 0 1 -1.362 -15.242 1.836 1.836 0 0 1 1.8 -1.479h13.6a1.834 1.834 0 0 1 1.8 1.479 26.134 26.134 0 0 1 -1.358 15.242 0.919 0.919 0 0 0 1.241 1.188c2.018 -0.961 3.361 -3.239 4.189 -5.226a14.375 14.375 0 0 0 1.106 -5.505v-5.341A13.781 13.781 0 0 0 68.64 36.757Z" fill="none" stroke="#020064" stroke-linecap="round" stroke-linejoin="round" stroke-width="1"></path>
  <path d="m64.047 45.944 0 2.757" fill="none" stroke="#020064" stroke-linecap="round" stroke-linejoin="round" stroke-width="1"></path>
  <path d="m68.64 45.944 0 2.757" fill="none" stroke="#020064" stroke-linecap="round" stroke-linejoin="round" stroke-width="1"></path>
  <path d="m73.234 45.944 0 2.757" fill="none" stroke="#020064" stroke-linecap="round" stroke-linejoin="round" stroke-width="1"></path>
  <path d="M63.128 52.835a1.378 1.378 0 1 0 2.756 0 1.378 1.378 0 1 0 -2.756 0Z" fill="#020064" stroke-width="1"></path>
  <path d="M71.397 52.835a1.378 1.378 0 1 0 2.756 0 1.378 1.378 0 1 0 -2.756 0Z" fill="#020064" stroke-width="1"></path>
</svg>