<svg viewBox="0 0 100 100" xmlns="http://www.w3.org/2000/svg" id="Video-Gopro--Streamline-Ux">
  <desc>
    Video Gopro Streamline Illustration: https://streamlinehq.com
  </desc>
  <path d="M10 50a40 40 0 1 0 80 0 40 40 0 1 0 -80 0Z" fill="#d9edff" stroke-width="1"></path>
  <path d="M28.203 67.737h17.834v5.284H28.203z" fill="#ffffff" stroke-width="1"></path>
  <path d="M28.203 67.737h17.834v5.284H28.203z" fill="none" stroke="#020064" stroke-linecap="round" stroke-linejoin="round" stroke-width="1"></path>
  <path d="m26.221 24.803 50.2 0 0 38.31 -50.2 0Z" fill="#b0d9ff" stroke="#020064" stroke-linecap="round" stroke-linejoin="round" stroke-width="1"></path>
  <path d="m30.184 28.766 42.273 0 0 30.384 -42.273 0Z" fill="#ffffff" stroke="#020064" stroke-linecap="round" stroke-linejoin="round" stroke-width="1"></path>
  <path d="m48.679 24.803 27.742 0 0 23.779 -27.742 0Z" fill="#ffffff" stroke="#020064" stroke-linecap="round" stroke-linejoin="round" stroke-width="1"></path>
  <path d="M67.834 24.8H46.7v-2.3a1 1 0 0 1 1 -1h19.134a1 1 0 0 1 1 1Z" fill="#b0d9ff" stroke="#020064" stroke-linecap="round" stroke-linejoin="round" stroke-width="1"></path>
  <path d="m51.982 28.105 21.137 0 0 17.174 -21.137 0Z" fill="#b0d9ff" stroke-width="1"></path>
  <path d="M46.037 63.113h10.568v13.21H46.037z" fill="#ffffff" stroke-width="1"></path>
  <path d="M59.247 78.323a2 2 0 0 0 -2 -2H45.4a2 2 0 0 0 -2 2v1.624a1 1 0 0 0 1 1h13.847a1 1 0 0 0 1 -1Z" fill="#020064" stroke-width="1"></path>
  <path d="M56.605 36.692a5.945 5.945 0 1 0 11.89 0 5.945 5.945 0 1 0 -11.89 0Z" fill="#ffffff" stroke-width="1"></path>
  <path d="m51.982 28.105 21.137 0 0 17.174 -21.137 0Z" fill="none" stroke="#020064" stroke-linecap="round" stroke-linejoin="round" stroke-width="1"></path>
  <path d="M56.605 36.692a5.945 5.945 0 1 0 11.89 0 5.945 5.945 0 1 0 -11.89 0Z" fill="none" stroke="#020064" stroke-linecap="round" stroke-linejoin="round" stroke-width="1"></path>
  <path d="m57.926 53.866 10.569 0" fill="none" stroke="#020064" stroke-linecap="round" stroke-linejoin="round" stroke-width="1"></path>
  <path d="M59.247 78.323a2 2 0 0 0 -2 -2H45.4a2 2 0 0 0 -2 2v1.624a1 1 0 0 0 1 1h13.847a1 1 0 0 0 1 -1Z" fill="#b0d9ff" stroke="#020064" stroke-linecap="round" stroke-linejoin="round" stroke-width="1"></path>
  <path d="M61.229 71.7a2.642 2.642 0 0 1 -2.642 2.642h-1.982v-7.927h1.982a2.642 2.642 0 0 1 2.642 2.643Z" fill="#ffffff" stroke="#020064" stroke-linecap="round" stroke-linejoin="round" stroke-width="1"></path>
  <path d="M46.037 63.113h10.568v13.21H46.037z" fill="none" stroke="#020064" stroke-linecap="round" stroke-linejoin="round" stroke-width="1"></path>
  <path d="M49.339 63.113h3.963v13.21h-3.963z" fill="#ffffff" stroke-width="1"></path>
  <path d="M49.339 63.113h3.963v13.21h-3.963z" fill="none" stroke="#020064" stroke-linecap="round" stroke-linejoin="round" stroke-width="1"></path>
  <path d="M48.679 89.978Q49.338 90 50 90q2.006 0 3.963 -0.194v-8.859h-5.284Z" fill="#ffffff" stroke-width="1"></path>
  <path d="m53.963 89.806 0 -8.859 -5.284 0 0 9.031" fill="none" stroke="#020064" stroke-linecap="round" stroke-linejoin="round" stroke-width="1"></path>
  <path d="m61.229 69.058 -4.624 0" fill="none" stroke="#020064" stroke-linecap="round" stroke-linejoin="round" stroke-width="1"></path>
  <path d="m61.229 71.7 -4.624 0" fill="none" stroke="#020064" stroke-linecap="round" stroke-linejoin="round" stroke-width="1"></path>
  <path d="m32.826 33.389 12.55 0 0 11.229 -12.55 0Z" fill="#ffffff" stroke-width="1"></path>
  <path d="m32.826 33.389 12.55 0 0 11.229 -12.55 0Z" fill="none" stroke="#020064" stroke-linecap="round" stroke-linejoin="round" stroke-width="1"></path>
  <path d="M23.579 65.956a1.329 1.329 0 0 1 1.7 -1.276 5.947 5.947 0 0 1 0 11.4 1.329 1.329 0 0 1 -1.7 -1.276Z" fill="#b0d9ff" stroke-width="1"></path>
  <path d="M23.579 65.956a1.329 1.329 0 0 1 1.7 -1.276 5.947 5.947 0 0 1 0 11.4 1.329 1.329 0 0 1 -1.7 -1.276Z" fill="#ffffff" stroke="#020064" stroke-linecap="round" stroke-linejoin="round" stroke-width="1"></path>
</svg>